<svg width="80" height="55" viewBox="0 0 80 55" fill="none" xmlns="http://www.w3.org/2000/svg">
<path d="M74.1693 16.8628C74.3319 16.314 74.647 15.948 75.1145 15.7651C75.6024 15.5821 76.0802 15.5415 76.5477 15.6431C77.0153 15.7448 77.4016 15.9684 77.7065 16.314C78.0114 16.6596 78.0724 17.0865 77.8894 17.5947C76.995 20.1765 75.8261 22.1789 74.3827 23.6019C72.9597 25.0046 71.4147 25.7059 69.7477 25.7059C69.1175 25.7059 68.5178 25.5941 67.9486 25.3705C67.3997 25.1672 66.9118 24.8826 66.4849 24.5167C66.058 24.1304 65.7226 23.673 65.4786 23.1445C65.2347 22.5956 65.1127 21.9857 65.1127 21.3149C65.1127 20.7253 65.2347 20.0748 65.4786 19.3633L66.8203 15.6431C66.9423 15.2772 66.9525 14.9824 66.8508 14.7588C66.7695 14.5149 66.6272 14.3217 66.4239 14.1794C66.2206 14.0168 65.9767 13.8948 65.6921 13.8135C65.4278 13.7322 65.1737 13.6509 64.9297 13.5696L63.2221 18.1436C63.0392 18.6924 62.7037 19.0889 62.2158 19.3328C61.7483 19.5768 61.2807 19.6682 60.8131 19.6072C60.3659 19.5259 59.9898 19.3023 59.6849 18.9364C59.4003 18.5705 59.3596 18.0622 59.5629 17.4117L61.7889 11.4045C61.2807 10.7743 61.0266 10.0526 61.0266 9.23949C61.0266 9.01587 61.0469 8.77193 61.0876 8.50765C61.1486 8.24337 61.2299 7.99943 61.3315 7.77581C61.4942 7.22693 61.7991 6.77969 62.2463 6.4341C62.7139 6.08851 63.2628 5.91571 63.893 5.91571C64.2995 5.91571 64.6858 6.01736 65.0517 6.22064C65.4176 6.4036 65.7226 6.65772 65.9665 6.98298C66.2105 7.28791 66.3731 7.64367 66.4544 8.05025C66.5561 8.4365 66.5357 8.84308 66.3934 9.26998C66.8203 9.39196 67.3387 9.57492 67.9486 9.81887C68.5585 10.0425 69.148 10.3373 69.7172 10.7032C70.2864 11.0691 70.7642 11.5163 71.1504 12.0449C71.557 12.5531 71.7603 13.1731 71.7603 13.905C71.7603 14.1693 71.7298 14.4437 71.6688 14.7283C71.6281 14.9926 71.557 15.2772 71.4553 15.5821L69.6562 20.583C69.5749 20.8067 69.5342 21.0303 69.5342 21.2539C69.5342 21.4775 69.5851 21.6706 69.6867 21.8333C69.7884 21.9756 69.951 22.0467 70.1746 22.0467C70.4999 22.0467 70.8353 21.9146 71.1809 21.6503C71.5265 21.386 71.8721 21.0303 72.2177 20.583C72.5633 20.1155 72.8987 19.5666 73.2239 18.9364C73.5695 18.3062 73.8846 17.615 74.1693 16.8628Z" fill="black"/>
<path d="M59.2895 17.1068C59.4522 16.5782 59.7673 16.2021 60.2348 15.9785C60.7227 15.7549 61.2005 15.6837 61.668 15.7651C62.1559 15.826 62.5422 16.0293 62.8268 16.3749C63.1317 16.7205 63.1825 17.1982 62.9793 17.8081C62.471 19.2718 61.8103 20.5119 60.9972 21.5283C60.184 22.5244 59.2794 23.3376 58.2833 23.9678C57.2872 24.598 56.2402 25.0554 55.1424 25.34C54.0447 25.6246 52.9673 25.7669 51.9101 25.7669C50.7921 25.7669 49.7553 25.6246 48.7998 25.34C47.8444 25.0757 47.0109 24.6895 46.2994 24.1812C45.6082 23.6527 45.0593 23.0225 44.6527 22.2906C44.2461 21.5588 44.0428 20.7355 44.0428 19.8207C44.0428 19.4751 44.0733 19.1193 44.1343 18.7534C44.2156 18.3875 44.3173 18.0216 44.4393 17.6556L46.2384 12.4413C46.5026 11.6891 46.8584 11.0284 47.3056 10.4592C47.7529 9.86966 48.2611 9.38177 48.8303 8.99552C49.3995 8.58894 50.0094 8.29417 50.6599 8.11121C51.3308 7.90792 52.0016 7.80627 52.6725 7.80627C53.5263 7.80627 54.309 7.93841 55.0205 8.20269C55.732 8.46697 56.3317 8.83289 56.8196 9.30045C57.3278 9.74769 57.7141 10.2864 57.9783 10.9166C58.2629 11.5265 58.4052 12.1973 58.4052 12.9292C58.4052 13.4374 58.3239 13.9964 58.1613 14.6063C57.958 15.2975 57.6531 15.9175 57.2465 16.4664C56.8602 17.0153 56.4028 17.4828 55.8743 17.8691C55.3457 18.2553 54.7562 18.5603 54.1057 18.7839C53.4755 18.9872 52.8148 19.0888 52.1236 19.0888C51.5137 19.0888 50.9344 19.0075 50.3855 18.8449C49.8569 18.6823 49.369 18.4586 48.9218 18.174L48.6778 18.7534C48.5762 19.0177 48.5254 19.3023 48.5254 19.6072C48.5254 20.3187 48.8506 20.9184 49.5012 21.4063C50.1517 21.8942 51.036 22.1382 52.1541 22.1382C52.8046 22.1382 53.4755 22.0467 54.1667 21.8637C54.8782 21.6604 55.549 21.3555 56.1792 20.9489C56.8297 20.5424 57.4193 20.024 57.9478 19.3938C58.4967 18.7636 58.944 18.0012 59.2895 17.1068ZM52.581 11.435C52.2354 11.435 51.8898 11.5671 51.5442 11.8314C51.219 12.0754 50.9649 12.4311 50.7819 12.8987L50.1415 14.7283C50.4261 14.8909 50.7514 15.0027 51.1173 15.0637C51.5036 15.1247 51.8797 15.1247 52.2456 15.0637C52.6115 15.0027 52.9368 14.8706 53.2214 14.6673C53.5263 14.4437 53.7397 14.1286 53.8617 13.722C53.943 13.4984 53.9837 13.2544 53.9837 12.9902C53.9837 12.5632 53.8516 12.1973 53.5873 11.8924C53.3433 11.5875 53.0079 11.435 52.581 11.435Z" fill="black"/>
<path d="M44.4476 16.9238C44.6305 16.3546 44.966 15.9582 45.4539 15.7346C45.9417 15.4907 46.4195 15.4195 46.887 15.5211C47.3749 15.6025 47.7612 15.8261 48.0458 16.192C48.3304 16.5579 48.3609 17.0458 48.1373 17.6557C47.6087 19.1397 47.009 20.4001 46.3382 21.4369C45.6876 22.4736 44.9863 23.3173 44.2341 23.9678C43.5023 24.598 42.7399 25.0554 41.9471 25.34C41.1543 25.6246 40.3716 25.7669 39.5991 25.7669C38.9486 25.7669 38.3286 25.6653 37.739 25.462C37.1495 25.279 36.6209 25.0046 36.1534 24.6387C35.7061 24.2727 35.3504 23.8255 35.0861 23.297C34.8218 22.7481 34.6897 22.1179 34.6897 21.4064C34.6897 20.7355 34.8218 20.0647 35.0861 19.3938L37.2511 13.3256C37.2918 13.1833 37.3223 13.0512 37.3426 12.9292C37.3833 12.7869 37.4036 12.6649 37.4036 12.5633C37.4036 12.2787 37.3121 12.0551 37.1291 11.8924C36.9665 11.7095 36.7429 11.618 36.4583 11.618C36.0314 11.618 35.5638 11.8009 35.0556 12.1669C34.5677 12.5328 34.1205 13.102 33.7139 13.8745C33.4496 14.6063 33.165 15.3992 32.8601 16.253C32.5755 17.0865 32.2807 17.9403 31.9758 18.8144C31.6708 19.6682 31.3659 20.5221 31.061 21.3759C30.756 22.2094 30.4714 22.992 30.2071 23.7239C30.0445 24.2118 29.8006 24.6082 29.4753 24.9131C29.15 25.218 28.7943 25.4417 28.408 25.584C28.0421 25.7263 27.666 25.7771 27.2798 25.7364C26.8935 25.7161 26.5683 25.6043 26.304 25.401C26.0194 25.218 25.8161 24.9538 25.6941 24.6082C25.5721 24.2423 25.5823 23.8052 25.7246 23.297L30.817 9.02605C30.939 8.59914 31.1829 8.28404 31.5489 8.08075C31.9148 7.87746 32.301 7.77582 32.7076 7.77582C33.1345 7.75549 33.5208 7.82664 33.8664 7.98927C34.2323 8.1519 34.4661 8.37552 34.5677 8.66013C35.3809 8.19256 36.3567 7.95878 37.4951 7.95878C38.1049 7.95878 38.6843 8.06042 39.2332 8.26371C39.7821 8.467 40.2598 8.75161 40.6664 9.11753C41.073 9.46312 41.3982 9.89003 41.6422 10.3983C41.8861 10.9065 42.0081 11.4655 42.0081 12.0754C42.0081 12.5633 41.8963 13.1223 41.6727 13.7525L41.7032 13.722L39.2942 20.5221C39.1925 20.8677 39.1417 21.1218 39.1417 21.2844C39.1417 21.8333 39.4263 22.1077 39.9955 22.1077C40.707 22.1077 41.4592 21.7011 42.252 20.888C43.0449 20.0748 43.7767 18.7534 44.4476 16.9238Z" fill="black"/>
<path d="M28.0201 16.9238C28.203 16.3546 28.5385 15.9582 29.0264 15.7346C29.5143 15.4907 29.992 15.4195 30.4595 15.5211C30.9474 15.6025 31.3337 15.8261 31.6183 16.192C31.9029 16.5579 31.9334 17.0458 31.7098 17.6557C31.1812 19.1397 30.5815 20.4001 29.9107 21.4369C29.2601 22.4736 28.5588 23.3173 27.8066 23.9678C27.0748 24.598 26.3124 25.0554 25.5196 25.34C24.7268 25.6246 23.9441 25.7669 23.1716 25.7669C22.5211 25.7669 21.9011 25.6653 21.3115 25.462C20.722 25.279 20.1934 25.0046 19.7259 24.6387C19.2786 24.2727 18.9229 23.8255 18.6586 23.297C18.3943 22.7481 18.2622 22.1179 18.2622 21.4064C18.2622 20.7355 18.3943 20.0647 18.6586 19.3938L20.8236 13.3256C20.8643 13.1833 20.8948 13.0512 20.9151 12.9292C20.9558 12.7869 20.9761 12.6649 20.9761 12.5633C20.9761 12.2787 20.8846 12.0551 20.7017 11.8924C20.539 11.7095 20.3154 11.618 20.0308 11.618C19.6039 11.618 19.1363 11.8009 18.6281 12.1669C18.1402 12.5328 17.693 13.102 17.2864 13.8745C17.0221 14.6063 16.7375 15.3992 16.4326 16.253C16.148 17.0865 15.8532 17.9403 15.5483 18.8144C15.2433 19.6682 14.9384 20.5221 14.6335 21.3759C14.3285 22.2094 14.0439 22.992 13.7797 23.7239C13.617 24.2118 13.3731 24.6082 13.0478 24.9131C12.7226 25.218 12.3668 25.4417 11.9805 25.584C11.6146 25.7263 11.2385 25.7771 10.8523 25.7364C10.466 25.7161 10.1408 25.6043 9.8765 25.401C9.5919 25.218 9.38861 24.9538 9.26663 24.6082C9.14466 24.2423 9.15482 23.8052 9.29713 23.297L14.3895 9.02605C14.5115 8.59914 14.7554 8.28404 15.1214 8.08075C15.4873 7.87746 15.8735 7.77582 16.2801 7.77582C16.707 7.75549 17.0933 7.82664 17.4389 7.98927C17.8048 8.1519 18.0386 8.37552 18.1402 8.66013C18.9534 8.19256 19.9292 7.95878 21.0676 7.95878C21.6774 7.95878 22.2568 8.06042 22.8057 8.26371C23.3546 8.467 23.8323 8.75161 24.2389 9.11753C24.6455 9.46312 24.9707 9.89003 25.2147 10.3983C25.4586 10.9065 25.5806 11.4655 25.5806 12.0754C25.5806 12.5633 25.4688 13.1223 25.2452 13.7525L25.2757 13.722L22.8667 20.5221C22.765 20.8677 22.7142 21.1218 22.7142 21.2844C22.7142 21.8333 22.9988 22.1077 23.568 22.1077C24.2796 22.1077 25.0317 21.7011 25.8246 20.888C26.6174 20.0748 27.3492 18.7534 28.0201 16.9238Z" fill="black"/>
<path d="M10.3735 5.00092C9.68235 5.00092 9.09281 4.75697 8.60491 4.26907C8.11702 3.78118 7.87307 3.18148 7.87307 2.46997C7.87307 1.77878 8.11702 1.19941 8.60491 0.731841C9.09281 0.243947 9.68235 0 10.3735 0C11.0647 0 11.6543 0.243947 12.1421 0.731841C12.63 1.19941 12.874 1.77878 12.874 2.46997C12.874 3.18148 12.63 3.78118 12.1421 4.26907C11.6543 4.75697 11.0647 5.00092 10.3735 5.00092ZM6.25692 20.5526C6.19593 20.7355 6.16544 20.8981 6.16544 21.0404C6.16544 21.3251 6.26708 21.569 6.47037 21.7723C6.69399 21.9756 6.9786 22.0772 7.32419 22.0772C7.62912 22.0772 7.95439 21.9959 8.29998 21.8333C8.64557 21.6503 9.00133 21.3555 9.36725 20.949C9.73317 20.5424 10.0991 20.0138 10.465 19.3633C10.8513 18.6925 11.2273 17.859 11.5933 16.8629C11.7966 16.2936 12.1421 15.9074 12.63 15.7041C13.1179 15.5008 13.5957 15.45 14.0632 15.5516C14.5308 15.633 14.9069 15.8566 15.1915 16.2225C15.4761 16.5681 15.5269 17.0153 15.344 17.5642C14.8154 19.1499 14.2157 20.4611 13.5448 21.4979C12.874 22.5346 12.1726 23.3681 11.4408 23.9983C10.709 24.6285 9.95679 25.0656 9.18429 25.3095C8.43212 25.5738 7.67995 25.7059 6.92777 25.7059C6.21626 25.7059 5.54541 25.6043 4.91521 25.401C4.30534 25.1977 3.75646 24.9029 3.26857 24.5167C2.801 24.1304 2.43508 23.6629 2.1708 23.114C1.8862 22.5448 1.7439 21.9044 1.7439 21.1929C1.7439 20.9286 1.78455 20.6135 1.86587 20.2476C1.92686 19.8817 2.00817 19.5463 2.10982 19.2413C2.35376 18.5298 2.60788 17.7777 2.87215 16.9848C3.15676 16.192 3.44136 15.3992 3.72597 14.6063C4.01057 13.7932 4.28501 12.9902 4.54929 12.1974C4.83389 11.3842 5.09817 10.6219 5.34212 9.91036C5.62672 9.07687 6.05363 8.4975 6.62284 8.17223C7.21238 7.84697 7.77143 7.74532 8.29998 7.8673C8.82853 7.98927 9.24527 8.3247 9.55021 8.87358C9.85514 9.40213 9.87547 10.1035 9.61119 10.9776L6.25692 20.5526Z" fill="black"/>
<path d="M53.2996 30.4527C53.2996 38.9855 46.3824 45.9027 37.8496 45.9027C29.3169 45.9027 22.3997 38.9855 22.3997 30.4527C22.3997 21.9199 29.3169 15.0027 37.8496 15.0027C46.3824 15.0027 53.2996 21.9199 53.2996 30.4527Z" fill="#FCDE5C"/>
<path d="M76.1882 45.9739C76.3509 45.4453 76.666 45.0693 77.1335 44.8456C77.6214 44.622 78.0992 44.5509 78.5667 44.6322C79.0546 44.6932 79.4409 44.8965 79.7255 45.242C80.0304 45.5876 80.0812 46.0654 79.8779 46.6752C79.3697 48.1389 78.709 49.379 77.8959 50.3954C77.0827 51.3916 76.1781 52.2047 75.182 52.8349C74.1858 53.4651 73.1389 53.9225 72.0411 54.2071C70.9434 54.4917 69.8659 54.634 68.8088 54.634C67.6907 54.634 66.654 54.4917 65.6985 54.2071C64.743 53.9428 63.9096 53.5566 63.198 53.0484C62.5069 52.5198 61.958 51.8896 61.5514 51.1578C61.1448 50.4259 60.9415 49.6026 60.9415 48.6878C60.9415 48.3422 60.972 47.9865 61.033 47.6205C61.1143 47.2546 61.216 46.8887 61.3379 46.5228L63.1371 41.3084C63.4013 40.5562 63.7571 39.8955 64.2043 39.3263C64.6516 38.7368 65.1598 38.2489 65.729 37.8626C66.2982 37.4561 66.9081 37.1613 67.5586 36.9783C68.2295 36.775 68.9003 36.6734 69.5712 36.6734C70.425 36.6734 71.2076 36.8055 71.9192 37.0698C72.6307 37.3341 73.2304 37.7 73.7183 38.1676C74.2265 38.6148 74.6127 39.1535 74.877 39.7837C75.1616 40.3936 75.3039 41.0645 75.3039 41.7963C75.3039 42.3045 75.2226 42.8636 75.06 43.4734C74.8567 44.1646 74.5518 44.7846 74.1452 45.3335C73.7589 45.8824 73.3015 46.35 72.773 46.7362C72.2444 47.1225 71.6549 47.4274 71.0044 47.651C70.3742 47.8543 69.7135 47.956 69.0223 47.956C68.4124 47.956 67.833 47.8746 67.2842 47.712C66.7556 47.5494 66.2677 47.3258 65.8205 47.0412L65.5765 47.6205C65.4749 47.8848 65.4241 48.1694 65.4241 48.4743C65.4241 49.1859 65.7493 49.7856 66.3998 50.2735C67.0504 50.7614 67.9347 51.0053 69.0528 51.0053C69.7033 51.0053 70.3742 50.9138 71.0653 50.7309C71.7769 50.5276 72.4477 50.2226 73.0779 49.8161C73.7284 49.4095 74.318 48.8911 74.8465 48.2609C75.3954 47.6307 75.8426 46.8684 76.1882 45.9739ZM69.4797 40.3021C69.1341 40.3021 68.7885 40.4343 68.4429 40.6985C68.1176 40.9425 67.8635 41.2982 67.6806 41.7658L67.0402 43.5954C67.3248 43.758 67.6501 43.8698 68.016 43.9308C68.4023 43.9918 68.7783 43.9918 69.1443 43.9308C69.5102 43.8698 69.8354 43.7377 70.12 43.5344C70.425 43.3108 70.6384 42.9957 70.7604 42.5891C70.8417 42.3655 70.8824 42.1216 70.8824 41.8573C70.8824 41.4304 70.7502 41.0645 70.486 40.7595C70.242 40.4546 69.9066 40.3021 69.4797 40.3021Z" fill="black"/>
<path d="M56.0129 49.6026C55.9723 49.7042 55.9418 49.8059 55.9215 49.9075C55.9011 49.9888 55.891 50.06 55.891 50.121C55.891 50.3446 55.9723 50.5377 56.1349 50.7003C56.2975 50.863 56.5313 50.9443 56.8363 50.9443C57.5478 50.9443 58.3101 50.5377 59.1233 49.7245C59.9568 48.9114 60.7191 47.5798 61.4103 45.7299C61.6745 45.0387 62.0506 44.5813 62.5385 44.3577C63.0264 44.1341 63.494 44.0833 63.9412 44.2052C64.3885 44.3272 64.7442 44.5915 65.0085 44.9981C65.2728 45.4046 65.3134 45.8824 65.1305 46.4312C64.6019 48.0169 63.9819 49.3383 63.2704 50.3954C62.5792 51.4322 61.8473 52.2657 61.0748 52.8959C60.3227 53.5057 59.5502 53.9326 58.7573 54.1766C57.9645 54.4409 57.2022 54.573 56.4703 54.573C55.7995 54.573 55.1591 54.4713 54.5493 54.2681C53.9394 54.0851 53.4007 53.8107 52.9331 53.4447C52.4859 53.0788 52.1301 52.6316 51.8658 52.103C51.6016 51.5541 51.4694 50.9239 51.4694 50.2124C51.4694 49.6026 51.5914 48.9419 51.8353 48.2304L57.812 30.8796C57.995 30.3307 58.2491 29.9038 58.5744 29.5989C58.92 29.2736 59.2859 29.0602 59.6721 28.9585C60.0584 28.8366 60.4446 28.8162 60.8309 28.8975C61.2171 28.9789 61.5424 29.1517 61.8067 29.4159C62.071 29.6599 62.2438 29.9851 62.3251 30.3917C62.4267 30.7983 62.3759 31.276 62.1726 31.8249L56.0129 49.6026Z" fill="black"/>
<path d="M52.549 45.547C52.7319 44.9981 53.0572 44.6322 53.5247 44.4492C54.0126 44.2663 54.4802 44.2358 54.9274 44.3577C55.3747 44.4797 55.7406 44.7338 56.0252 45.1201C56.3098 45.486 56.3505 45.9434 56.1472 46.4923C55.6593 47.8746 55.0291 49.0741 54.2566 50.0905C53.4841 51.1069 52.6099 51.9506 51.6342 52.6215C50.6787 53.2923 49.6521 53.7904 48.5543 54.1156C47.4566 54.4409 46.3486 54.6035 45.2305 54.6035C44.1124 54.6035 43.0858 54.4511 42.1507 54.1461C41.2359 53.8412 40.4431 53.4244 39.7722 52.8959C39.1217 52.3673 38.6135 51.7371 38.2476 51.0053C37.8816 50.2531 37.6987 49.44 37.6987 48.5658C37.6987 47.8746 37.8206 47.1631 38.0646 46.4313L39.8027 41.3084C40.067 40.5156 40.4227 39.8244 40.87 39.2348C41.3375 38.6453 41.8458 38.1676 42.3947 37.8017C42.9639 37.4154 43.5636 37.1308 44.1938 36.9478C44.8443 36.7649 45.4948 36.6734 46.1453 36.6734C46.9788 36.6734 47.731 36.8564 48.4019 37.2223C49.093 37.5882 49.6419 38.0863 50.0485 38.7165C50.4754 39.3467 50.7295 40.0683 50.8108 40.8815C50.9125 41.6946 50.8007 42.5586 50.4754 43.4734C50.1298 44.3679 49.6521 44.9473 49.0422 45.2116C48.4527 45.4555 47.8936 45.486 47.3651 45.303C46.8569 45.1201 46.4706 44.7846 46.2063 44.2968C45.9421 43.7885 45.9624 43.2295 46.2673 42.6196C46.5519 42.0911 46.6536 41.6337 46.5722 41.2474C46.4909 40.8612 46.2165 40.6477 45.7489 40.6071C45.4846 40.5867 45.2204 40.6884 44.9561 40.912C44.6918 41.1153 44.4885 41.41 44.3462 41.7963V41.7658L42.4556 47.0717C42.3337 47.4782 42.2727 47.8442 42.2727 48.1694C42.2727 48.9419 42.5776 49.5924 43.1875 50.121C43.8177 50.6495 44.6613 50.9138 45.7184 50.9138C46.2876 50.9138 46.8873 50.8223 47.5175 50.6394C48.1681 50.4361 48.7983 50.121 49.4081 49.6941C50.018 49.2672 50.5974 48.7183 51.1463 48.0474C51.6951 47.3563 52.1627 46.5228 52.549 45.547Z" fill="black"/>
<path d="M38.4308 45.7299C38.5934 45.1811 38.9085 44.8151 39.3761 44.6322C39.864 44.4492 40.3417 44.4086 40.8093 44.5102C41.2768 44.6118 41.6631 44.8355 41.968 45.1811C42.273 45.5266 42.3339 45.9536 42.151 46.4618C41.2565 49.0436 40.0876 51.046 38.6442 52.469C37.2212 53.8717 35.6762 54.573 34.0092 54.573C33.379 54.573 32.7793 54.4612 32.2101 54.2376C31.6612 54.0343 31.1734 53.7497 30.7464 53.3838C30.3195 52.9975 29.9841 52.5401 29.7402 52.0116C29.4962 51.4627 29.3742 50.8528 29.3742 50.182C29.3742 49.5924 29.4962 48.9419 29.7402 48.2304L31.0819 44.5102C31.2038 44.1443 31.214 43.8495 31.1124 43.6259C31.0311 43.3819 30.8887 43.1888 30.6855 43.0465C30.4822 42.8839 30.2382 42.7619 29.9536 42.6806C29.6893 42.5993 29.4352 42.518 29.1913 42.4366L27.4837 47.0107C27.3007 47.5595 26.9653 47.956 26.4774 48.1999C26.0098 48.4439 25.5422 48.5353 25.0747 48.4743C24.6274 48.393 24.2514 48.1694 23.9464 47.8035C23.6618 47.4376 23.6212 46.9293 23.8244 46.2788L26.0505 40.2716C25.5422 39.6414 25.2881 38.9197 25.2881 38.1066C25.2881 37.883 25.3085 37.639 25.3491 37.3747C25.4101 37.1105 25.4914 36.8665 25.5931 36.6429C25.7557 36.094 26.0606 35.6468 26.5079 35.3012C26.9754 34.9556 27.5243 34.7828 28.1545 34.7828C28.5611 34.7828 28.9473 34.8845 29.3133 35.0877C29.6792 35.2707 29.9841 35.5248 30.2281 35.8501C30.472 36.155 30.6346 36.5108 30.716 36.9173C30.8176 37.3036 30.7973 37.7102 30.655 38.1371C31.0819 38.2591 31.6003 38.442 32.2101 38.686C32.82 38.9096 33.4095 39.2043 33.9787 39.5703C34.548 39.9362 35.0257 40.3834 35.4119 40.912C35.8185 41.4202 36.0218 42.0402 36.0218 42.7721C36.0218 43.0364 35.9913 43.3108 35.9303 43.5954C35.8897 43.8597 35.8185 44.1443 35.7169 44.4492L33.9178 49.4501C33.8364 49.6737 33.7958 49.8974 33.7958 50.121C33.7958 50.3446 33.8466 50.5377 33.9483 50.7004C34.0499 50.8427 34.2125 50.9138 34.4361 50.9138C34.7614 50.9138 35.0968 50.7817 35.4424 50.5174C35.788 50.2531 36.1336 49.8974 36.4792 49.4501C36.8248 48.9826 37.1602 48.4337 37.4855 47.8035C37.8311 47.1733 38.1462 46.4821 38.4308 45.7299Z" fill="black"/>
<path d="M22.3394 33.868C21.6482 33.868 21.0586 33.6241 20.5707 33.1362C20.0828 32.6483 19.8389 32.0486 19.8389 31.3371C19.8389 30.6459 20.0828 30.0665 20.5707 29.5989C21.0586 29.111 21.6482 28.8671 22.3394 28.8671C23.0305 28.8671 23.6201 29.111 24.108 29.5989C24.5959 30.0665 24.8398 30.6459 24.8398 31.3371C24.8398 32.0486 24.5959 32.6483 24.108 33.1362C23.6201 33.6241 23.0305 33.868 22.3394 33.868ZM18.2227 49.4197C18.1618 49.6026 18.1313 49.7652 18.1313 49.9075C18.1313 50.1922 18.2329 50.4361 18.4362 50.6394C18.6598 50.8427 18.9444 50.9443 19.29 50.9443C19.5949 50.9443 19.9202 50.863 20.2658 50.7004C20.6114 50.5174 20.9671 50.2226 21.3331 49.8161C21.699 49.4095 22.0649 48.8809 22.4308 48.2304C22.8171 47.5596 23.1932 46.7261 23.5591 45.7299C23.7624 45.1607 24.108 44.7745 24.5959 44.5712C25.0838 44.3679 25.5615 44.3171 26.0291 44.4187C26.4966 44.5 26.8727 44.7237 27.1573 45.0896C27.4419 45.4352 27.4927 45.8824 27.3098 46.4313C26.7812 48.017 26.1815 49.3282 25.5107 50.3649C24.8398 51.4017 24.1385 52.2352 23.4066 52.8654C22.6748 53.4956 21.9226 53.9327 21.1501 54.1766C20.3979 54.4409 19.6458 54.573 18.8936 54.573C18.1821 54.573 17.5112 54.4714 16.881 54.2681C16.2712 54.0648 15.7223 53.77 15.2344 53.3838C14.7668 52.9975 14.4009 52.53 14.1366 51.9811C13.852 51.4119 13.7097 50.7715 13.7097 50.06C13.7097 49.7957 13.7504 49.4806 13.8317 49.1147C13.8927 48.7488 13.974 48.4134 14.0756 48.1084C14.3196 47.3969 14.5737 46.6448 14.838 45.8519C15.1226 45.0591 15.4072 44.2663 15.6918 43.4734C15.9764 42.6603 16.2508 41.8573 16.5151 41.0645C16.7997 40.2513 17.064 39.489 17.3079 38.7775C17.5925 37.944 18.0195 37.3646 18.5887 37.0393C19.1782 36.7141 19.7372 36.6124 20.2658 36.7344C20.7944 36.8564 21.2111 37.1918 21.516 37.7407C21.821 38.2692 21.8413 38.9706 21.577 39.8447L18.2227 49.4197Z" fill="black"/>
<path d="M14.8503 45.547C15.0332 44.9981 15.3585 44.6322 15.8261 44.4492C16.314 44.2663 16.7815 44.2358 17.2288 44.3577C17.676 44.4797 18.0419 44.7338 18.3265 45.1201C18.6111 45.486 18.6518 45.9434 18.4485 46.4923C17.9606 47.8746 17.3304 49.0741 16.5579 50.0905C15.7854 51.1069 14.9113 51.9506 13.9355 52.6215C12.98 53.2923 11.9534 53.7904 10.8557 54.1156C9.75789 54.4409 8.64996 54.6035 7.53187 54.6035C6.41378 54.6035 5.38717 54.4511 4.45204 54.1461C3.53724 53.8412 2.74441 53.4244 2.07355 52.8959C1.42303 52.3673 0.914802 51.7371 0.548881 51.0053C0.18296 50.2531 0 49.44 0 48.5658C0 47.8746 0.121974 47.1631 0.365921 46.4313L2.10404 41.3084C2.36832 40.5156 2.72408 39.8244 3.17131 39.2348C3.63888 38.6453 4.1471 38.1676 4.69598 37.8017C5.26519 37.4154 5.8649 37.1308 6.4951 36.9478C7.14562 36.7649 7.79615 36.6734 8.44667 36.6734C9.28016 36.6734 10.0323 36.8564 10.7032 37.2223C11.3944 37.5882 11.9433 38.0863 12.3498 38.7165C12.7767 39.3467 13.0308 40.0683 13.1122 40.8815C13.2138 41.6946 13.102 42.5586 12.7767 43.4734C12.4311 44.3679 11.9534 44.9473 11.3435 45.2116C10.754 45.4555 10.195 45.486 9.66641 45.303C9.15819 45.1201 8.77194 44.7846 8.50766 44.2968C8.24338 43.7885 8.26371 43.2295 8.56865 42.6196C8.85325 42.0911 8.9549 41.6337 8.87358 41.2474C8.79226 40.8612 8.51783 40.6477 8.05026 40.6071C7.78598 40.5867 7.52171 40.6884 7.25743 40.912C6.99316 41.1153 6.78987 41.41 6.64756 41.7963V41.7658L4.75697 47.0717C4.635 47.4782 4.57401 47.8442 4.57401 48.1694C4.57401 48.9419 4.87894 49.5924 5.48881 50.121C6.11901 50.6495 6.96266 50.9138 8.01977 50.9138C8.58898 50.9138 9.18868 50.8223 9.81888 50.6394C10.4694 50.4361 11.0996 50.121 11.7095 49.6941C12.3193 49.2672 12.8987 48.7183 13.4476 48.0474C13.9965 47.3563 14.464 46.5228 14.8503 45.547Z" fill="black"/>
</svg>
