<svg width="31" height="31" viewBox="0 0 31 31" fill="none" xmlns="http://www.w3.org/2000/svg">
<path d="M30.9 15.45C30.9 23.9828 23.9828 30.9 15.45 30.9C6.9172 30.9 0 23.9828 0 15.45C0 6.9172 6.9172 0 15.45 0C23.9828 0 30.9 6.9172 30.9 15.45Z" fill="#FCDE5C"/>
<path d="M8 15.5C8 16.3284 7.32843 17 6.5 17C5.67157 17 5 16.3284 5 15.5C5 14.6716 5.67157 14 6.5 14C7.32843 14 8 14.6716 8 15.5Z" fill="black"/>
<path d="M17 19.5C17 20.3284 16.3284 21 15.5 21C14.6716 21 14 20.3284 14 19.5C14 18.6716 14.6716 18 15.5 18C16.3284 18 17 18.6716 17 19.5Z" fill="black"/>
<path fill-rule="evenodd" clip-rule="evenodd" d="M6 22.25C6.41421 22.25 6.75 22.5858 6.75 23C6.75 23.3779 6.88579 23.8275 7.13812 24.2316C7.39131 24.6371 7.72021 24.9312 8.04141 25.0649C8.80044 25.3809 9.72968 25.3215 10.5191 24.6619C10.837 24.3963 11.3099 24.4387 11.5755 24.7565C11.8411 25.0744 11.7988 25.5474 11.4809 25.813C10.2331 26.8556 8.70395 26.9655 7.46493 26.4497C6.78711 26.1675 6.23942 25.6245 5.86578 25.0261C5.49128 24.4263 5.25 23.7052 5.25 23C5.25 22.5858 5.58579 22.25 6 22.25Z" fill="black"/>
</svg>
